<svg version="1.1" id="Layer_1" xmlns="http://www.w3.org/2000/svg" xmlns:xlink="http://www.w3.org/1999/xlink" x="0px" y="0px"
	 width="100%" viewBox="0 0 641 389" enable-background="new 0 0 641 389" xml:space="preserve">
<path fill="#000000" opacity="1.000000" stroke="none" 
	d="
M288.000000,390.000000 
	C192.353516,390.000000 96.707039,390.000000 1.030279,390.000000 
	C1.030279,260.380890 1.030279,130.761765 1.030279,1.071318 
	C214.574020,1.071318 428.148071,1.071318 641.861084,1.071318 
	C641.861084,130.546555 641.861084,260.093292 641.861084,390.000000 
	C531.643616,390.000000 421.286804,390.000000 310.432953,389.623596 
	C308.700684,388.254761 307.479706,386.437073 306.227753,386.415436 
	C301.301819,386.330353 296.345245,386.631836 291.448578,387.204590 
	C290.207031,387.349792 289.144684,389.026825 288.000000,390.000000 
M454.004364,85.003265 
	C454.004364,85.003265 454.058533,84.979149 453.991547,84.283142 
	C453.001709,82.838852 452.011871,81.394554 451.003723,80.003426 
	C451.003723,80.003426 451.057251,79.985329 450.990509,79.252693 
	C441.269867,62.098820 431.549225,44.944950 421.376038,26.992449 
	C419.823425,28.905363 418.783081,29.891558 418.095947,31.081694 
	C413.610596,38.850883 409.266357,46.701885 404.751343,54.453552 
	C399.317169,63.783348 393.712463,73.013763 388.267181,82.337196 
	C382.338501,92.488297 376.412018,102.642967 370.667236,112.898407 
	C366.596558,120.165321 362.829254,127.602188 358.992828,135.002411 
	C358.992828,135.002411 358.951996,134.938431 358.299408,135.178513 
	C353.511719,143.775620 348.724030,152.372726 343.993164,161.003906 
	C343.993164,161.003906 343.961578,160.947601 343.300964,161.172852 
	C338.092926,169.460876 332.884888,177.748901 327.240387,185.765167 
	C326.825562,185.488205 326.410706,185.211227 325.854736,184.463211 
	C325.663177,184.174484 325.398285,183.992371 324.966949,183.204819 
	C323.642181,180.799042 322.317413,178.393280 320.995972,176.001907 
	C320.995972,176.001907 321.008209,176.008194 320.995178,175.269730 
	C317.672150,169.821838 314.349091,164.373947 311.012390,158.995102 
	C311.012390,158.995102 311.080963,158.979324 310.992340,158.250244 
	C310.909821,157.936218 310.891937,157.584946 310.735474,157.313538 
	C302.516052,143.057571 294.347626,128.771545 286.025116,114.575897 
	C282.522217,108.601059 278.691284,102.818550 274.999359,97.003120 
	C274.999359,97.003120 275.053497,96.991180 274.951874,96.263443 
	C274.925476,96.099922 274.943207,95.911331 274.866486,95.776443 
	C266.282562,80.680740 257.743195,65.559280 249.068466,50.515888 
	C246.585709,46.210365 243.709946,42.131489 241.001663,38.002846 
	C241.001663,38.002846 241.054886,37.986504 240.993057,37.255405 
	C239.319839,34.175064 237.646606,31.094719 235.488098,27.120989 
	C234.469055,28.612379 233.945740,29.278381 233.527588,30.004908 
	C224.638168,45.450371 215.799667,60.925285 206.870178,76.347527 
	C196.940842,93.496567 186.841919,110.547890 176.980515,127.735672 
	C166.985947,145.155518 157.171631,162.679016 147.334045,180.188400 
	C146.099457,182.385788 145.204056,184.773758 144.026093,187.494446 
	C144.026093,187.494446 143.923828,187.921661 143.320663,188.247009 
	C142.494598,189.252151 141.518234,190.168793 140.865997,191.276306 
	C135.065643,201.125534 129.306503,210.999176 123.565788,220.883362 
	C108.870537,246.185211 94.193130,271.497467 79.504173,296.802979 
	C73.356003,307.394806 67.087601,317.918823 61.088760,328.594452 
	C58.125977,333.867065 55.651131,339.413879 53.280701,345.683746 
	C71.856331,345.728912 90.431969,345.774109 109.937096,345.932129 
	C115.956329,345.900879 121.975555,345.869659 128.927643,345.993164 
	C163.200394,345.995270 197.473175,346.012451 231.745789,345.943665 
	C233.098938,345.940948 234.450455,345.118530 236.040863,344.428009 
	C236.040863,344.428009 236.165573,344.106018 236.771103,343.787384 
	C244.743393,330.074402 252.744125,316.377869 260.679993,302.643860 
	C268.697723,288.768219 276.613800,274.833832 284.641968,260.964294 
	C295.046967,242.988510 305.474792,225.025543 315.985352,207.111374 
	C319.765472,200.668549 323.814148,194.383255 328.132385,188.623734 
	C331.430481,194.254578 334.737244,199.880386 338.024872,205.517334 
	C345.667206,218.620895 353.342285,231.705627 360.926605,244.842728 
	C370.219818,260.939941 379.424927,277.087952 388.685150,293.204224 
	C395.832245,305.642822 402.946106,318.101227 410.194519,330.480682 
	C413.390167,335.938477 416.882751,341.222412 420.220184,347.522522 
	C427.852142,347.682709 435.484009,347.975861 443.116089,347.981659 
	C495.724976,348.021667 548.333923,348.014923 600.942749,347.938690 
	C602.565125,347.936340 604.186279,347.012665 606.020630,345.841675 
	C606.030334,345.510101 606.174011,345.098267 606.030396,344.858459 
	C599.973450,334.740875 593.757935,324.715820 587.838928,314.518616 
	C575.068298,292.517578 562.516663,270.389435 549.746399,248.388229 
	C538.186340,228.472061 526.455017,208.655350 514.697021,188.245026 
	C514.096313,187.771225 513.495667,187.297424 512.926147,186.493866 
	C512.926147,186.493866 512.833740,186.175797 512.815063,185.441010 
	C511.275299,182.754700 509.792084,180.034012 508.183990,177.389252 
	C504.837952,171.886215 501.425812,166.423386 498.005615,161.002335 
	C498.005615,161.002335 498.067078,160.971024 497.993561,160.242188 
	C494.667358,154.810181 491.341156,149.378174 488.002045,144.002960 
	C488.002045,144.002960 488.059174,143.991608 487.962006,143.264450 
	C484.628418,137.334045 481.381012,131.352936 477.932404,125.490196 
	C475.427612,121.232010 472.656586,117.130440 469.997223,113.004280 
	C469.997223,113.004280 470.042755,112.999062 469.962128,112.266655 
	C464.976593,103.800041 459.991058,95.333420 454.944885,86.477928 
	C454.944885,86.477928 454.834320,86.100212 454.878357,85.544754 
	C454.586426,85.344513 454.294495,85.144264 454.004364,85.003265 
M392.954926,345.347992 
	C392.407715,343.965546 392.025787,342.487244 391.287842,341.215454 
	C383.573883,327.921082 375.766022,314.681152 368.057037,301.383911 
	C358.852966,285.507843 349.757599,269.568695 340.537537,253.701950 
	C336.870117,247.390778 332.994812,241.200439 328.891479,234.422012 
	C327.568024,237.315125 326.778870,239.497223 325.632751,241.472183 
	C317.593811,255.324707 309.478485,269.132935 301.392914,282.958405 
	C291.971771,299.067505 282.490356,315.141907 273.179047,331.314240 
	C270.493835,335.977997 268.304779,340.927429 266.190002,346.616821 
	C266.999298,346.752197 267.808594,347.005676 268.617920,347.005951 
	C308.891968,347.019623 349.165985,347.019379 389.439972,346.967468 
	C390.608887,346.965942 391.777039,346.393250 392.954926,345.347992 
z"/>
<path fill="#29292B" opacity="1.000000" stroke="none" 
	d="
M288.468567,390.000000 
	C289.144684,389.026825 290.207031,387.349792 291.448578,387.204590 
	C296.345245,386.631836 301.301819,386.330353 306.227753,386.415436 
	C307.479706,386.437073 308.700684,388.254761 309.967957,389.623596 
	C302.979034,390.000000 295.958099,390.000000 288.468567,390.000000 
z"/>
<path fill="#1D817A" opacity="1.000000" stroke="none" 
	d="
M127.994789,345.838409 
	C121.975555,345.869659 115.956329,345.900879 109.142113,345.616699 
	C106.361008,345.184052 104.375244,344.972168 102.388695,344.964478 
	C85.911049,344.900482 69.433258,344.874237 52.955505,344.836609 
	C55.651131,339.413879 58.125977,333.867065 61.088760,328.594452 
	C67.087601,317.918823 73.356003,307.394806 79.504173,296.802979 
	C94.193130,271.497467 108.870537,246.185211 123.565788,220.883362 
	C129.306503,210.999176 135.065643,201.125534 140.865997,191.276306 
	C141.518234,190.168793 142.494598,189.252151 143.760376,188.375458 
	C144.463120,189.317368 144.726151,190.130829 144.757507,191.201813 
	C141.751083,195.802063 144.040421,196.935822 148.014069,196.999283 
	C147.996841,197.007187 148.007629,196.970871 148.033051,197.345993 
	C149.572189,202.198242 150.783981,206.882797 155.973450,209.265259 
	C162.436890,220.048935 168.710037,230.532837 174.990723,241.007751 
	C174.998260,240.998779 174.977234,241.014465 175.015701,241.342026 
	C175.687973,242.480331 176.321777,243.291077 176.976013,244.328751 
	C176.996445,244.555679 177.080383,245.003586 177.144409,245.344528 
	C180.148270,251.059937 182.924408,256.532959 186.081772,261.776489 
	C188.442841,265.697571 191.295578,269.322601 193.954803,273.040710 
	C193.980225,273.001923 193.908920,273.061554 193.946808,273.426941 
	C196.963608,278.582886 199.942535,283.373383 202.930359,288.374695 
	C202.939240,288.585510 203.011627,289.001221 203.075775,289.359375 
	C203.656891,291.109253 203.992920,292.604309 204.719452,293.876373 
	C210.521332,304.034546 216.309631,314.202515 222.287079,324.257507 
	C225.301010,329.327423 228.698929,334.169067 231.954926,339.463440 
	C233.379578,341.243958 234.772583,342.674988 236.165573,344.106018 
	C236.165573,344.106018 236.040863,344.428009 235.470856,344.606812 
	C201.340225,344.839600 167.779556,344.877930 134.219086,344.985229 
	C132.143433,344.991852 130.069519,345.541443 127.994789,345.838409 
M142.441711,199.131042 
	C141.433395,199.511673 140.425079,199.892319 139.416763,200.272934 
	C139.646042,200.832062 139.875336,201.391190 140.104630,201.950317 
	C140.940430,201.191269 141.776230,200.432220 142.441711,199.131042 
z"/>
<path fill="#B92D32" opacity="1.000000" stroke="none" 
	d="
M512.833740,186.175797 
	C512.833740,186.175797 512.926147,186.493866 512.458008,186.724762 
	C490.675293,187.047104 469.360748,187.138565 447.575897,187.180756 
	C442.387268,187.163071 437.668945,187.194687 432.490051,187.175323 
	C416.370361,187.158051 400.711273,187.191742 384.583069,187.189941 
	C379.059540,187.178406 374.005096,187.202347 368.490051,187.175323 
	C358.033844,187.157532 348.038208,187.190704 337.659912,187.196091 
	C336.510010,187.196686 335.742706,187.225082 334.577454,187.210907 
	C333.114105,187.099823 332.048767,187.031296 331.055115,186.617096 
	C332.950928,183.133240 334.947479,180.080795 336.559937,176.837387 
	C339.160278,171.606964 341.507477,166.250702 343.961578,160.947601 
	C343.961578,160.947601 343.993164,161.003906 344.303833,160.913040 
	C347.627441,156.560715 351.007874,152.505081 353.544281,147.976715 
	C355.827728,143.899979 357.185760,139.304886 358.951996,134.938431 
	C358.951996,134.938431 358.992828,135.002411 359.304565,134.913910 
	C360.809052,133.542252 362.237183,132.407486 363.155457,130.951248 
	C368.174591,122.991753 373.102539,114.974007 377.991150,106.933304 
	C380.493195,102.817963 382.847717,98.612968 385.237335,94.502853 
	C387.153625,95.381241 388.536530,96.015129 391.044617,97.164787 
	C389.694000,90.952148 388.056305,85.507889 393.152466,81.128418 
	C394.603607,82.364037 395.880829,83.451576 397.158051,84.539108 
	C397.637207,84.398003 398.116364,84.256897 398.595490,84.115791 
	C398.376984,81.891167 398.002014,79.667763 397.984650,77.441566 
	C397.967834,75.288139 397.515961,72.446762 398.659851,71.105637 
	C402.052246,67.128296 404.397400,63.203621 406.127075,57.946125 
	C408.751678,49.968445 414.286652,42.938946 418.659851,35.550793 
	C420.239227,32.882557 422.019623,32.387821 423.762512,35.518620 
	C429.623413,46.046917 435.315399,56.675957 441.457245,67.038101 
	C444.182159,71.635429 447.828949,75.686356 451.057251,79.985321 
	C451.057251,79.985329 451.003723,80.003426 451.002380,80.370148 
	C452.020203,82.150955 453.039368,83.565048 454.058533,84.979149 
	C454.058533,84.979149 454.004364,85.003265 454.110291,85.187447 
	C454.387909,85.643608 454.593933,85.886467 454.834320,86.100212 
	C454.834320,86.100212 454.944885,86.477928 454.999664,87.056702 
	C459.208710,95.616379 463.327087,103.616524 467.577942,111.545654 
	C467.963135,112.264084 469.200928,112.525436 470.042755,112.999062 
	C470.042755,112.999062 469.997223,113.004280 470.004150,113.366257 
	C470.367035,114.985733 470.482361,116.382683 471.117462,117.478401 
	C475.676697,125.344704 480.301117,133.174316 485.015533,140.948441 
	C485.738068,142.139923 487.030365,142.985870 488.059174,143.991608 
	C488.059174,143.991608 488.002045,144.002960 488.004730,144.375839 
	C489.565796,151.269165 492.436523,156.975800 498.067078,160.971024 
	C498.067078,160.971024 498.005615,161.002335 498.012512,161.361481 
	C501.663361,169.222244 505.215851,176.771301 509.055389,184.171402 
	C509.595673,185.212677 511.539581,185.525681 512.833740,186.175797 
z"/>
<path fill="#0E6393" opacity="1.000000" stroke="none" 
	d="
M325.060059,183.916870 
	C325.398285,183.992371 325.663177,184.174484 325.735962,185.001053 
	C324.062317,186.043365 322.507446,186.547836 320.715332,187.160736 
	C320.204224,187.487671 319.930420,187.706192 319.422028,187.854477 
	C318.864288,187.716980 318.539154,187.705322 317.866425,187.575165 
	C315.274536,187.518204 313.028259,187.635345 310.613525,187.747711 
	C310.445007,187.742935 310.123932,187.845840 309.810577,187.827301 
	C309.288361,187.822021 309.079529,187.835297 308.705139,187.793854 
	C308.539520,187.739136 308.190735,187.741028 307.803864,187.561279 
	C301.617828,187.591690 295.818695,187.801865 289.644043,187.832382 
	C285.510162,187.431229 281.751770,187.209732 277.595123,186.971985 
	C276.134491,186.973419 275.072144,186.991104 273.606537,186.987823 
	C272.126526,186.983322 271.049713,186.999802 269.576965,186.993301 
	C268.126923,186.889404 267.072876,186.808487 266.050568,186.380249 
	C267.269379,183.353668 268.456421,180.674423 269.826111,177.582962 
	C264.170776,177.027878 259.588226,176.668182 255.029968,176.109985 
	C247.824188,175.227570 243.175858,179.024246 245.828674,186.327942 
	C245.054031,186.635086 244.521408,186.803284 243.657791,186.957520 
	C242.885422,186.958282 242.444061,186.973038 241.753296,186.980530 
	C241.503876,186.973267 241.005173,186.991364 240.536591,186.969421 
	C218.377609,186.958527 196.687210,186.969559 174.534149,186.962112 
	C170.048340,186.953720 166.025208,186.963837 161.602631,186.957809 
	C160.138062,186.953842 159.072952,186.966019 157.547058,186.958344 
	C153.390579,186.893784 149.694870,186.849091 146.083618,186.481873 
	C147.658813,184.218506 149.411987,182.424637 150.595322,180.311661 
	C155.981018,170.694916 161.043365,160.894669 166.537460,151.341843 
	C171.551010,142.624527 177.170486,134.254883 182.157013,125.523056 
	C187.810928,115.622559 192.962845,105.436615 198.519394,95.478775 
	C201.579956,89.993958 205.110809,84.773766 208.276718,79.345108 
	C216.200455,65.758118 224.021347,52.111168 231.930344,38.515530 
	C232.815842,36.993359 234.002609,35.646461 234.948532,34.356205 
	C237.251633,35.725422 239.153259,36.855961 241.054886,37.986504 
	C241.054886,37.986504 241.001663,38.002846 241.006088,38.365852 
	C243.253143,43.845692 245.161728,49.142830 247.806396,54.042671 
	C253.722778,65.004150 259.801117,75.891609 266.248108,86.546227 
	C268.573456,90.389206 269.187378,96.017563 275.053497,96.991180 
	C275.053497,96.991180 274.999359,97.003120 275.004883,97.376678 
	C275.216522,99.053391 275.073181,100.555962 275.684753,101.627686 
	C279.986816,109.166313 284.582062,116.539810 288.792053,124.127846 
	C290.787720,127.724838 292.142273,131.677505 294.223541,136.474625 
	C297.558777,136.974884 298.289276,141.113892 300.284973,144.769211 
	C303.103607,149.931808 307.410370,154.281891 311.080963,158.979324 
	C311.080963,158.979324 311.012390,158.995102 311.040588,159.351624 
	C313.230377,164.616501 315.279480,169.580551 317.655731,174.382706 
	C318.090912,175.262177 319.856659,175.483231 321.008209,176.008194 
	C321.008209,176.008194 320.995972,176.001907 320.999329,176.404114 
	C321.014160,179.941681 320.897003,183.150452 325.060059,183.916870 
M306.031403,184.232559 
	C306.745575,183.844437 307.459747,183.456314 308.173920,183.068207 
	C305.085571,179.960571 301.997223,176.852921 298.908875,173.745285 
	C298.345398,174.311569 297.781952,174.877853 297.218475,175.444122 
	C299.977875,178.250046 302.737274,181.055954 306.031403,184.232559 
M311.171265,169.266220 
	C310.273285,169.333588 309.375305,169.400940 308.477295,169.468338 
	C308.761658,170.137039 309.046021,170.805740 309.330383,171.474426 
	C310.032684,170.926361 310.734985,170.378281 311.171265,169.266220 
z"/>
<path fill="#2189C0" opacity="1.000000" stroke="none" 
	d="
M310.123932,187.845840 
	C310.123932,187.845840 310.445007,187.742935 310.943970,187.983917 
	C313.699341,188.066360 315.955688,187.907822 318.212067,187.749283 
	C318.539154,187.705322 318.864288,187.716980 319.665619,187.745224 
	C320.413391,187.488251 320.682983,187.270294 320.952576,187.052322 
	C322.507446,186.547836 324.062317,186.043365 325.806519,185.236572 
	C326.410706,185.211227 326.825562,185.488205 327.505676,186.230042 
	C327.853943,187.128601 327.936859,187.562302 327.946442,187.971329 
	C327.873077,187.946640 327.740265,188.026062 327.740265,188.026062 
	C323.814148,194.383255 319.765472,200.668549 315.985352,207.111374 
	C305.474792,225.025543 295.046967,242.988510 284.641968,260.964294 
	C276.613800,274.833832 268.697723,288.768219 260.679993,302.643860 
	C252.744125,316.377869 244.743393,330.074402 236.468338,343.946716 
	C234.772583,342.674988 233.379578,341.243958 231.973846,339.048798 
	C230.401352,334.749756 228.866623,331.203522 227.275848,327.682617 
	C225.044098,322.743042 223.141373,317.606659 220.428802,312.943695 
	C216.288116,305.825714 211.652405,298.988525 207.040009,292.158325 
	C206.131363,290.812775 204.376312,290.038818 203.011627,289.001221 
	C203.011627,289.001221 202.939240,288.585510 202.949356,287.960785 
	C202.192139,281.151611 199.093140,276.445526 193.908920,273.061554 
	C193.908920,273.061554 193.980225,273.001923 193.963623,272.640198 
	C193.820694,271.303192 193.965576,270.179596 193.525909,269.375702 
	C189.291840,261.633636 185.025711,253.906433 180.559738,246.297668 
	C180.074249,245.470535 178.271912,245.416306 177.080383,245.003571 
	C177.080383,245.003586 176.996445,244.555679 176.956696,243.988586 
	C176.270386,242.619141 175.623810,241.816803 174.977234,241.014465 
	C174.977234,241.014465 174.998260,240.998779 174.995422,240.596573 
	C174.781006,238.571075 175.010544,236.708298 174.281708,235.365829 
	C171.076126,229.461319 167.620804,223.691162 164.204987,217.902390 
	C159.946823,210.686111 155.608551,203.516968 151.378342,196.284485 
	C150.574051,194.909363 150.111786,193.334183 149.143188,191.017838 
	C152.088074,190.261337 154.544327,189.630371 157.233795,189.219482 
	C160.627747,191.650848 161.745377,190.104156 162.002090,186.973953 
	C166.025208,186.963837 170.048340,186.953720 174.601501,187.348572 
	C177.095612,188.501358 179.053894,189.880524 181.024673,189.898605 
	C199.235153,190.065689 217.447968,189.955536 235.659561,190.042938 
	C238.440765,190.056274 241.219116,190.667267 243.916901,191.388977 
	C240.633240,200.880219 240.666687,210.331573 241.138260,219.766068 
	C241.224747,221.496185 242.894455,224.548203 243.936981,224.593262 
	C249.175888,224.819794 249.185303,228.049744 249.023224,231.780838 
	C248.936905,233.767929 248.695312,235.886826 249.264069,237.716034 
	C249.655991,238.976440 251.218613,240.519623 252.438934,240.697876 
	C253.717575,240.884644 255.438019,239.854553 256.563080,238.888031 
	C258.567932,237.165710 260.338501,235.150146 262.073700,233.141983 
	C263.173523,231.869125 264.032043,230.387817 265.259583,228.820435 
	C266.680237,227.427261 267.840118,226.213638 269.368286,224.991608 
	C270.942810,224.043121 273.048248,223.216110 273.183502,222.141251 
	C273.559906,219.149017 273.118439,216.053879 273.281006,213.178467 
	C278.041656,217.163818 282.521271,220.970078 286.739624,224.554352 
	C289.898468,220.743622 292.751190,217.488800 295.380829,214.062759 
	C297.068878,211.863449 297.952026,208.796402 300.026245,207.191101 
	C305.814941,202.710999 304.103455,198.624878 299.332520,193.465881 
	C298.605743,192.680023 297.576141,192.174255 296.435760,191.359772 
	C300.651672,190.061905 304.421204,188.901474 308.190735,187.741028 
	C308.190735,187.741028 308.539520,187.739136 308.852112,187.895691 
	C309.484436,187.983444 309.804169,187.914642 310.123932,187.845840 
z"/>
<path fill="#2D2D2F" opacity="1.000000" stroke="none" 
	d="
M265.888275,345.745880 
	C268.304779,340.927429 270.493835,335.977997 273.179047,331.314240 
	C282.490356,315.141907 291.971771,299.067505 301.392914,282.958405 
	C309.478485,269.132935 317.593811,255.324707 325.632751,241.472183 
	C326.778870,239.497223 327.568024,237.315125 328.891479,234.422012 
	C332.994812,241.200439 336.870117,247.390778 340.537537,253.701950 
	C349.757599,269.568695 358.852966,285.507843 368.057037,301.383911 
	C375.766022,314.681152 383.573883,327.921082 391.287842,341.215454 
	C392.025787,342.487244 392.407715,343.965546 392.489319,345.650269 
	C384.544342,345.939484 377.065002,345.925720 369.585663,345.913574 
	C335.019867,345.857452 300.454071,345.801758 265.888275,345.745880 
z"/>
<path fill="#E79845" opacity="1.000000" stroke="none" 
	d="
M514.799194,188.794769 
	C526.455017,208.655350 538.186340,228.472061 549.746399,248.388229 
	C562.516663,270.389435 575.068298,292.517578 587.838928,314.518616 
	C593.757935,324.715820 599.973450,334.740875 606.030396,344.858459 
	C606.174011,345.098267 606.030334,345.510101 605.466614,346.286133 
	C585.267822,346.810791 565.623047,346.958832 545.978271,346.957092 
	C504.681641,346.953400 463.385010,346.871094 422.091949,346.560852 
	C422.097839,345.953766 422.100159,345.606842 422.358093,345.144531 
	C423.067108,344.708130 423.520508,344.387177 424.355286,344.087891 
	C426.490295,344.405060 428.243927,344.700531 430.466370,345.001404 
	C487.673370,345.006775 544.411560,345.006775 602.546936,345.006775 
	C599.064819,339.810822 596.093994,335.377869 592.926392,330.660217 
	C588.804749,323.257050 584.879944,316.138580 580.816345,308.700806 
	C573.646423,295.901489 566.615234,283.421509 559.584595,270.942566 
	C558.157593,271.558655 557.108398,272.011688 554.987671,272.927307 
	C557.646912,268.330963 556.706421,265.418732 554.113464,262.151489 
	C551.275330,258.575287 549.470642,254.176056 547.236328,250.124069 
	C543.884583,244.045532 540.720581,237.855896 537.168152,231.897491 
	C532.342896,223.804245 527.173279,215.917145 522.256042,207.877655 
	C519.567749,203.482483 517.095093,198.955444 514.525146,194.487854 
	C513.974915,194.381927 513.424683,194.276001 512.874390,194.170074 
	C513.656799,206.419357 503.491089,211.722549 497.722168,219.920410 
	C496.972961,219.566986 496.496216,219.281326 496.176086,218.691101 
	C501.612640,208.948166 506.892609,199.509811 512.422729,189.919281 
	C513.381653,189.442993 514.090393,189.118881 514.799194,188.794769 
z"/>
<path fill="#D85D34" opacity="1.000000" stroke="none" 
	d="
M422.102478,345.259949 
	C422.100159,345.606842 422.097839,345.953766 421.776489,346.617035 
	C421.051788,346.817383 420.646149,346.701355 420.240509,346.585297 
	C416.882751,341.222412 413.390167,335.938477 410.194519,330.480682 
	C402.946106,318.101227 395.832245,305.642822 388.685150,293.204224 
	C379.424927,277.087952 370.219818,260.939941 360.926605,244.842728 
	C353.342285,231.705627 345.667206,218.620895 338.024872,205.517334 
	C334.737244,199.880386 331.430481,194.254578 327.936340,188.324890 
	C327.740265,188.026062 327.873077,187.946640 328.261292,187.934555 
	C329.427460,187.602570 330.205414,187.282669 330.983398,186.962769 
	C332.048767,187.031296 333.114105,187.099823 334.456909,187.505554 
	C332.979614,190.127213 333.407501,191.798203 335.023315,194.402252 
	C341.192596,204.344772 346.767365,214.656021 352.581360,224.819717 
	C352.895325,225.368622 353.365906,225.827942 353.714996,226.267776 
	C355.281342,225.991531 356.647949,225.750534 358.789795,225.372803 
	C356.527985,230.080933 357.916748,233.142456 360.332581,237.018387 
	C366.589508,247.056778 370.524414,258.533997 379.252136,267.060242 
	C379.761414,267.557770 379.600372,268.676453 379.996857,269.364532 
	C383.761780,275.897675 387.579834,282.400177 391.784027,289.598816 
	C393.082062,287.658234 393.504517,286.751373 394.172516,286.094086 
	C395.118805,285.163025 396.246185,284.415955 397.296173,283.590240 
	C397.809174,284.886169 398.338715,286.175842 398.830994,287.479584 
	C399.427277,289.058716 400.027924,290.637909 400.556549,292.240234 
	C400.859375,293.158173 401.023071,294.122009 401.341766,295.449982 
	C398.959930,295.078705 397.317871,294.822723 394.945953,294.452972 
	C397.050568,299.181274 398.569794,303.282410 400.631653,307.089630 
	C405.586792,316.239044 410.696899,325.308990 415.962311,334.283203 
	C417.600220,337.074829 419.936920,339.456390 421.965332,342.427551 
	C422.018799,343.639618 422.060638,344.449768 422.102478,345.259949 
z"/>
<path fill="#D85D34" opacity="1.000000" stroke="none" 
	d="
M514.748108,188.519897 
	C514.090393,189.118881 513.381653,189.442993 512.038269,189.927826 
	C509.548584,192.561752 507.540039,194.936020 505.868134,197.527466 
	C501.501007,204.296295 497.281128,211.160172 492.631226,217.953506 
	C490.856873,216.127731 489.343323,214.407761 488.091492,212.514694 
	C487.314880,211.340286 487.220764,209.018723 486.330078,208.731308 
	C481.461548,207.160309 481.959290,202.882004 481.248108,199.325439 
	C480.751526,196.842270 481.750854,195.361877 484.815674,195.313370 
	C486.163757,195.292023 487.484100,193.515930 488.817047,192.536560 
	C487.276703,191.724136 485.808929,190.631302 484.168213,190.206833 
	C483.219482,189.961365 481.915680,190.644608 480.902710,191.165009 
	C475.360779,194.012115 469.763275,193.445099 464.031250,191.812683 
	C461.516632,191.096588 458.787262,191.131592 456.276123,190.407104 
	C453.461548,189.595062 450.783630,188.309540 448.046234,187.230042 
	C469.360748,187.138565 490.675293,187.047104 512.442383,186.889648 
	C513.495667,187.297424 514.096313,187.771225 514.748108,188.519897 
z"/>
<path fill="#A43F43" opacity="1.000000" stroke="none" 
	d="
M451.023895,79.619003 
	C447.828949,75.686356 444.182159,71.635429 441.457245,67.038101 
	C435.315399,56.675957 429.623413,46.046917 423.762512,35.518620 
	C422.019623,32.387821 420.239227,32.882557 418.659851,35.550793 
	C414.286652,42.938946 408.751678,49.968445 406.127075,57.946125 
	C404.397400,63.203621 402.052246,67.128296 398.659851,71.105637 
	C397.515961,72.446762 397.967834,75.288139 397.984650,77.441566 
	C398.002014,79.667763 398.376984,81.891167 398.595490,84.115791 
	C398.116364,84.256897 397.637207,84.398003 397.158051,84.539108 
	C395.880829,83.451576 394.603607,82.364037 393.152466,81.128418 
	C388.056305,85.507889 389.694000,90.952148 391.044617,97.164787 
	C388.536530,96.015129 387.153625,95.381241 385.237335,94.502853 
	C382.847717,98.612968 380.493195,102.817963 377.991150,106.933304 
	C373.102539,114.974007 368.174591,122.991753 363.155457,130.951248 
	C362.237183,132.407486 360.809052,133.542252 359.271423,134.894302 
	C362.829254,127.602188 366.596558,120.165321 370.667236,112.898407 
	C376.412018,102.642967 382.338501,92.488297 388.267181,82.337196 
	C393.712463,73.013763 399.317169,63.783348 404.751343,54.453552 
	C409.266357,46.701885 413.610596,38.850883 418.095947,31.081694 
	C418.783081,29.891558 419.823425,28.905363 421.376038,26.992449 
	C431.549225,44.944950 441.269867,62.098820 451.023895,79.619003 
z"/>
<path fill="#2D6588" opacity="1.000000" stroke="none" 
	d="
M241.023972,37.620953 
	C239.153259,36.855961 237.251633,35.725422 234.948532,34.356205 
	C234.002609,35.646461 232.815842,36.993359 231.930344,38.515530 
	C224.021347,52.111168 216.200455,65.758118 208.276718,79.345108 
	C205.110809,84.773766 201.579956,89.993958 198.519394,95.478775 
	C192.962845,105.436615 187.810928,115.622559 182.157013,125.523056 
	C177.170486,134.254883 171.551010,142.624527 166.537460,151.341843 
	C161.043365,160.894669 155.981018,170.694916 150.595322,180.311661 
	C149.411987,182.424637 147.658813,184.218506 145.778381,186.544342 
	C144.976303,186.977386 144.563889,187.025406 144.151489,187.073425 
	C145.204056,184.773758 146.099457,182.385788 147.334045,180.188400 
	C157.171631,162.679016 166.985947,145.155518 176.980515,127.735672 
	C186.841919,110.547890 196.940842,93.496567 206.870178,76.347527 
	C215.799667,60.925285 224.638168,45.450371 233.527588,30.004908 
	C233.945740,29.278381 234.469055,28.612379 235.488098,27.120989 
	C237.646606,31.094719 239.319839,34.175064 241.023972,37.620953 
z"/>
<path fill="#2789BC" opacity="1.000000" stroke="none" 
	d="
M144.088791,187.283936 
	C144.563889,187.025406 144.976303,186.977386 145.693939,186.866882 
	C149.694870,186.849091 153.390579,186.893784 157.422836,187.212250 
	C157.506454,187.990479 157.253525,188.494934 157.000580,188.999390 
	C154.544327,189.630371 152.088074,190.261337 149.143188,191.017838 
	C150.111786,193.334183 150.574051,194.909363 151.378342,196.284485 
	C155.608551,203.516968 159.946823,210.686111 164.204987,217.902390 
	C167.620804,223.691162 171.076126,229.461319 174.281708,235.365829 
	C175.010544,236.708298 174.781006,238.571075 174.987885,240.605560 
	C168.710037,230.532837 162.436890,220.048935 155.837067,208.971039 
	C153.009491,204.574982 150.508560,200.772934 148.007629,196.970871 
	C148.007629,196.970871 147.996841,197.007187 147.949066,196.659485 
	C146.930603,194.522629 145.959900,192.733459 144.989197,190.944290 
	C144.726151,190.130829 144.463120,189.317368 144.061951,188.212784 
	C143.923828,187.921661 144.026093,187.494446 144.088791,187.283936 
z"/>
<path fill="#2D6588" opacity="1.000000" stroke="none" 
	d="
M311.036652,158.614777 
	C307.410370,154.281891 303.103607,149.931808 300.284973,144.769211 
	C298.289276,141.113892 297.558777,136.974884 294.223541,136.474625 
	C292.142273,131.677505 290.787720,127.724838 288.792053,124.127846 
	C284.582062,116.539810 279.986816,109.166313 275.684753,101.627686 
	C275.073181,100.555962 275.216522,99.053391 275.009949,97.349426 
	C278.691284,102.818550 282.522217,108.601059 286.025116,114.575897 
	C294.347626,128.771545 302.516052,143.057571 310.735474,157.313538 
	C310.891937,157.584946 310.909821,157.936218 311.036652,158.614777 
z"/>
<path fill="#F6C997" opacity="1.000000" stroke="none" 
	d="
M420.230347,347.053894 
	C420.646149,346.701355 421.051788,346.817383 421.772888,346.877258 
	C463.385010,346.871094 504.681641,346.953400 545.978271,346.957092 
	C565.623047,346.958832 585.267822,346.810791 605.360291,346.624542 
	C604.186279,347.012665 602.565125,347.936340 600.942749,347.938690 
	C548.333923,348.014923 495.724976,348.021667 443.116089,347.981659 
	C435.484009,347.975861 427.852142,347.682709 420.230347,347.053894 
z"/>
<path fill="#2D6588" opacity="1.000000" stroke="none" 
	d="
M275.002686,96.627312 
	C269.187378,96.017563 268.573456,90.389206 266.248108,86.546227 
	C259.801117,75.891609 253.722778,65.004150 247.806396,54.042671 
	C245.161728,49.142830 243.253143,43.845692 241.012451,38.338768 
	C243.709946,42.131489 246.585709,46.210365 249.068466,50.515888 
	C257.743195,65.559280 266.282562,80.680740 274.866486,95.776443 
	C274.943207,95.911331 274.925476,96.099922 275.002686,96.627312 
z"/>
<path fill="#C0C0C0" opacity="1.000000" stroke="none" 
	d="
M266.039124,346.181335 
	C300.454071,345.801758 335.019867,345.857452 369.585663,345.913574 
	C377.065002,345.925720 384.544342,345.939484 392.484619,346.019684 
	C391.777039,346.393250 390.608887,346.965942 389.439972,346.967468 
	C349.165985,347.019379 308.891968,347.019623 268.617920,347.005951 
	C267.808594,347.005676 266.999298,346.752197 266.039124,346.181335 
z"/>
<path fill="#91B4B1" opacity="1.000000" stroke="none" 
	d="
M128.461212,345.915771 
	C130.069519,345.541443 132.143433,344.991852 134.219086,344.985229 
	C167.779556,344.877930 201.340225,344.839600 235.351791,344.731812 
	C234.450455,345.118530 233.098938,345.940948 231.745789,345.943665 
	C197.473175,346.012451 163.200394,345.995270 128.461212,345.915771 
z"/>
<path fill="#A43F43" opacity="1.000000" stroke="none" 
	d="
M331.055115,186.617096 
	C330.205414,187.282669 329.427460,187.602570 328.334656,187.959244 
	C327.936859,187.562302 327.853943,187.128601 327.723938,186.365906 
	C332.884888,177.748901 338.092926,169.460876 343.631287,161.060226 
	C341.507477,166.250702 339.160278,171.606964 336.559937,176.837387 
	C334.947479,180.080795 332.950928,183.133240 331.055115,186.617096 
z"/>
<path fill="#A43F43" opacity="1.000000" stroke="none" 
	d="
M488.010590,143.628021 
	C487.030365,142.985870 485.738068,142.139923 485.015533,140.948441 
	C480.301117,133.174316 475.676697,125.344704 471.117462,117.478401 
	C470.482361,116.382683 470.367035,114.985733 470.007690,113.343628 
	C472.656586,117.130440 475.427612,121.232010 477.932404,125.490196 
	C481.381012,131.352936 484.628418,137.334045 488.010590,143.628021 
z"/>
<path fill="#A43F43" opacity="1.000000" stroke="none" 
	d="
M358.625702,135.058472 
	C357.185760,139.304886 355.827728,143.899979 353.544281,147.976715 
	C351.007874,152.505081 347.627441,156.560715 344.275391,160.895996 
	C348.724030,152.372726 353.511719,143.775620 358.625702,135.058472 
z"/>
<path fill="#A43F43" opacity="1.000000" stroke="none" 
	d="
M512.824402,185.808411 
	C511.539581,185.525681 509.595673,185.212677 509.055389,184.171402 
	C505.215851,176.771301 501.663361,169.222244 498.030121,161.332336 
	C501.425812,166.423386 504.837952,171.886215 508.183990,177.389252 
	C509.792084,180.034012 511.275299,182.754700 512.824402,185.808411 
z"/>
<path fill="#A43F43" opacity="1.000000" stroke="none" 
	d="
M470.002441,112.632858 
	C469.200928,112.525436 467.963135,112.264084 467.577942,111.545654 
	C463.327087,103.616524 459.208710,95.616379 455.029968,87.251129 
	C459.991058,95.333420 464.976593,103.800041 470.002441,112.632858 
z"/>
<path fill="#91B3AF" opacity="1.000000" stroke="none" 
	d="
M53.118103,345.260162 
	C69.433258,344.874237 85.911049,344.900482 102.388695,344.964478 
	C104.375244,344.972168 106.361008,345.184052 108.677368,345.560303 
	C90.431969,345.774109 71.856331,345.728912 53.118103,345.260162 
z"/>
<path fill="#2D6588" opacity="1.000000" stroke="none" 
	d="
M321.001709,175.638962 
	C319.856659,175.483231 318.090912,175.262177 317.655731,174.382706 
	C315.279480,169.580551 313.230377,164.616501 311.047424,159.317093 
	C314.349091,164.373947 317.672150,169.821838 321.001709,175.638962 
z"/>
<path fill="#A43F43" opacity="1.000000" stroke="none" 
	d="
M498.030334,160.606598 
	C492.436523,156.975800 489.565796,151.269165 488.011169,144.347443 
	C491.341156,149.378174 494.667358,154.810181 498.030334,160.606598 
z"/>
<path fill="#2D6588" opacity="1.000000" stroke="none" 
	d="
M325.013489,183.560852 
	C320.897003,183.150452 321.014160,179.941681 320.997620,176.396912 
	C322.317413,178.393280 323.642181,180.799042 325.013489,183.560852 
z"/>
<path fill="#A43F43" opacity="1.000000" stroke="none" 
	d="
M454.025024,84.631149 
	C453.039368,83.565048 452.020203,82.150955 451.011536,80.343559 
	C452.011871,81.394554 453.001709,82.838852 454.025024,84.631149 
z"/>
<path fill="#A43F43" opacity="1.000000" stroke="none" 
	d="
M454.856323,85.822479 
	C454.593933,85.886467 454.387909,85.643608 454.109375,85.157822 
	C454.294495,85.144264 454.586426,85.344513 454.856323,85.822479 
z"/>
<path fill="#2789BC" opacity="1.000000" stroke="none" 
	d="
M203.075775,289.359375 
	C204.376312,290.038818 206.131363,290.812775 207.040009,292.158325 
	C211.652405,298.988525 216.288116,305.825714 220.428802,312.943695 
	C223.141373,317.606659 225.044098,322.743042 227.275848,327.682617 
	C228.866623,331.203522 230.401352,334.749756 231.942169,338.699310 
	C228.698929,334.169067 225.301010,329.327423 222.287079,324.257507 
	C216.309631,314.202515 210.521332,304.034546 204.719452,293.876373 
	C203.992920,292.604309 203.656891,291.109253 203.075775,289.359375 
z"/>
<path fill="#2789BC" opacity="1.000000" stroke="none" 
	d="
M177.144409,245.344513 
	C178.271912,245.416306 180.074249,245.470535 180.559738,246.297668 
	C185.025711,253.906433 189.291840,261.633636 193.525909,269.375702 
	C193.965576,270.179596 193.820694,271.303192 193.938202,272.678955 
	C191.295578,269.322601 188.442841,265.697571 186.081772,261.776489 
	C182.924408,256.532959 180.148270,251.059937 177.144409,245.344513 
z"/>
<path fill="#2789BC" opacity="1.000000" stroke="none" 
	d="
M193.946808,273.426941 
	C199.093140,276.445526 202.192139,281.151611 202.940460,287.750000 
	C199.942535,283.373383 196.963608,278.582886 193.946808,273.426941 
z"/>
<path fill="#07827F" opacity="1.000000" stroke="none" 
	d="
M148.033051,197.345993 
	C150.508560,200.772934 153.009491,204.574982 155.646790,208.671265 
	C150.783981,206.882797 149.572189,202.198242 148.033051,197.345993 
z"/>
<path fill="#07827F" opacity="1.000000" stroke="none" 
	d="
M144.757507,191.201813 
	C145.959900,192.733459 146.930603,194.522629 147.966309,196.651581 
	C144.040421,196.935822 141.751083,195.802063 144.757507,191.201813 
z"/>
<path fill="#07827F" opacity="1.000000" stroke="none" 
	d="
M142.526855,199.402100 
	C141.776230,200.432220 140.940430,201.191269 140.104630,201.950317 
	C139.875336,201.391190 139.646042,200.832062 139.416763,200.272949 
	C140.425079,199.892319 141.433395,199.511673 142.526855,199.402100 
z"/>
<path fill="#2789BC" opacity="1.000000" stroke="none" 
	d="
M175.015701,241.342026 
	C175.623810,241.816803 176.270386,242.619141 176.936279,243.761658 
	C176.321777,243.291077 175.687973,242.480331 175.015701,241.342026 
z"/>
<path fill="#E05B29" opacity="1.000000" stroke="none" 
	d="
M447.575897,187.180756 
	C450.783630,188.309540 453.461548,189.595062 456.276123,190.407104 
	C458.787262,191.131592 461.516632,191.096588 464.031250,191.812683 
	C469.763275,193.445099 475.360779,194.012115 480.902710,191.165009 
	C481.915680,190.644608 483.219482,189.961365 484.168213,190.206833 
	C485.808929,190.631302 487.276703,191.724136 488.817047,192.536560 
	C487.484100,193.515930 486.163757,195.292023 484.815674,195.313370 
	C481.750854,195.361877 480.751526,196.842270 481.248108,199.325439 
	C481.959290,202.882004 481.461548,207.160309 486.330078,208.731308 
	C487.220764,209.018723 487.314880,211.340286 488.091492,212.514694 
	C489.343323,214.407761 490.856873,216.127731 492.553772,218.311707 
	C492.260895,220.813812 491.674133,222.925049 491.076691,225.038818 
	C491.066010,225.041321 491.046082,225.050385 490.846252,225.302094 
	C490.446503,226.375473 490.246582,227.197128 490.043152,228.027710 
	C490.039673,228.036636 490.048279,228.054123 489.703430,228.125916 
	C487.276764,231.889023 485.194916,235.580338 483.075195,239.526154 
	C482.791687,240.225067 482.546082,240.669495 482.027374,241.219955 
	C481.505707,242.216827 481.257141,243.107681 480.867737,244.308014 
	C475.481476,254.080322 470.236084,263.543152 464.786194,273.020538 
	C464.581665,273.035126 464.171692,273.043152 463.951660,273.233704 
	C463.476074,273.936768 463.220520,274.449310 462.648560,275.088501 
	C461.545837,276.802368 460.759521,278.389618 459.677917,280.107056 
	C458.917145,281.153351 458.451691,282.069489 457.670410,283.106964 
	C453.820557,288.707428 450.112488,294.084808 446.825073,299.708130 
	C445.151733,302.570496 444.234802,305.875061 442.645752,309.074005 
	C439.058899,314.508209 435.778076,319.833893 432.596161,325.217987 
	C432.367065,325.605621 432.859192,326.419586 432.996826,327.357056 
	C432.960724,328.108459 432.943787,328.538116 432.960815,328.980469 
	C432.994781,328.993225 432.941559,328.943848 432.710571,329.063965 
	C432.046448,329.473450 431.613312,329.762787 430.841156,330.141663 
	C427.652710,334.162689 424.803223,338.094177 421.953735,342.025665 
	C419.936920,339.456390 417.600220,337.074829 415.962311,334.283203 
	C410.696899,325.308990 405.586792,316.239044 400.631653,307.089630 
	C398.569794,303.282410 397.050568,299.181274 394.945953,294.452972 
	C397.317871,294.822723 398.959930,295.078705 401.341766,295.449982 
	C401.023071,294.122009 400.859375,293.158173 400.556549,292.240234 
	C400.027924,290.637909 399.427277,289.058716 398.830994,287.479584 
	C398.338715,286.175842 397.809174,284.886169 397.296173,283.590240 
	C396.246185,284.415955 395.118805,285.163025 394.172516,286.094086 
	C393.504517,286.751373 393.082062,287.658234 391.784027,289.598816 
	C387.579834,282.400177 383.761780,275.897675 379.996857,269.364532 
	C379.600372,268.676453 379.761414,267.557770 379.252136,267.060242 
	C370.524414,258.533997 366.589508,247.056778 360.332581,237.018387 
	C357.916748,233.142456 356.527985,230.080933 358.789795,225.372803 
	C356.647949,225.750534 355.281342,225.991531 353.714996,226.267776 
	C353.365906,225.827942 352.895325,225.368622 352.581360,224.819717 
	C346.767365,214.656021 341.192596,204.344772 335.023315,194.402252 
	C333.407501,191.798203 332.979614,190.127213 334.854919,187.548126 
	C335.742706,187.225082 336.510010,187.196686 337.855896,187.503616 
	C339.311218,188.208221 340.184631,188.888870 341.065216,188.898285 
	C349.267883,188.985825 357.472900,189.022980 365.674103,188.886536 
	C366.775208,188.868225 367.858887,187.805405 368.950653,187.226288 
	C374.005096,187.202347 379.059540,187.178406 384.776978,187.497681 
	C386.498566,188.218002 387.555298,188.917297 388.615997,188.923340 
	C402.114899,189.000259 415.614838,189.024918 429.113068,188.903885 
	C430.397156,188.892380 431.671692,187.810974 432.950653,187.226288 
	C437.668945,187.194687 442.387268,187.163071 447.575897,187.180756 
M480.954468,218.489059 
	C480.698029,217.543686 480.687531,215.959351 480.147278,215.751404 
	C474.499725,213.577560 468.825836,211.405762 462.995819,209.843002 
	C462.108948,209.605286 459.715240,212.258041 459.171692,213.945343 
	C456.871124,221.086746 462.847778,225.833618 465.007568,231.698776 
	C465.145386,232.073135 468.195221,232.069931 469.178345,231.315048 
	C472.934570,228.430984 476.448120,225.219986 479.928375,221.997238 
	C480.562500,221.410049 480.615936,220.195816 480.954468,218.489059 
M409.463745,286.634186 
	C408.840057,286.151215 408.216400,285.668213 407.592712,285.185242 
	C407.501343,285.948700 407.409973,286.712128 407.318573,287.475586 
	C408.020111,287.381348 408.721680,287.287109 409.463745,286.634186 
z"/>
<path fill="#D85D34" opacity="1.000000" stroke="none" 
	d="
M432.490051,187.175323 
	C431.671692,187.810974 430.397156,188.892380 429.113068,188.903885 
	C415.614838,189.024918 402.114899,189.000259 388.615997,188.923340 
	C387.555298,188.917297 386.498566,188.218002 385.246063,187.533173 
	C400.711273,187.191742 416.370361,187.158051 432.490051,187.175323 
z"/>
<path fill="#D85D34" opacity="1.000000" stroke="none" 
	d="
M368.490051,187.175323 
	C367.858887,187.805405 366.775208,188.868225 365.674103,188.886536 
	C357.472900,189.022980 349.267883,188.985825 341.065216,188.898285 
	C340.184631,188.888870 339.311218,188.208221 338.238525,187.531418 
	C348.038208,187.190704 358.033844,187.157532 368.490051,187.175323 
z"/>
<path fill="#368AB8" opacity="1.000000" stroke="none" 
	d="
M274.009766,187.008804 
	C275.072144,186.991104 276.134491,186.973419 277.596619,187.405136 
	C278.126007,195.606400 278.142395,195.561249 285.806030,198.340836 
	C286.986755,198.769104 287.872803,199.950592 289.011871,200.568634 
	C290.306458,201.271042 291.732208,201.731796 293.100891,202.297607 
	C293.504242,200.472656 294.308838,198.618362 294.178162,196.832504 
	C294.081573,195.512207 292.766724,194.281052 292.363403,193.039032 
	C297.359863,195.068222 299.615753,199.120392 296.802979,202.803360 
	C293.422455,207.229736 288.815704,210.866547 284.227051,214.122498 
	C283.045288,214.961014 279.829956,213.331467 277.752594,212.387329 
	C276.014038,211.597137 274.572876,210.152725 272.813934,209.142853 
	C272.389557,209.494171 272.173523,209.721786 271.743896,209.966660 
	C271.508087,209.962784 271.036346,209.965042 271.020538,209.586700 
	C270.302063,207.601685 269.901428,205.750351 268.837219,204.436554 
	C266.190643,201.169281 266.687500,198.488251 269.712372,195.922714 
	C270.830475,194.974365 271.907013,193.977020 273.310333,192.923523 
	C277.558350,191.155243 273.873199,188.953796 274.009766,187.008804 
z"/>
<path fill="#2788BE" opacity="1.000000" stroke="none" 
	d="
M273.000000,208.998016 
	C274.572876,210.152725 276.014038,211.597137 277.752594,212.387329 
	C279.829956,213.331467 283.045288,214.961014 284.227051,214.122498 
	C288.815704,210.866547 293.422455,207.229736 296.802979,202.803360 
	C299.615753,199.120392 297.359863,195.068222 292.086914,192.823608 
	C290.967560,191.056931 290.493561,189.534485 290.019531,188.012054 
	C295.818695,187.801865 301.617828,187.591690 307.803864,187.561279 
	C304.421204,188.901474 300.651672,190.061905 296.435760,191.359772 
	C297.576141,192.174255 298.605743,192.680023 299.332520,193.465881 
	C304.103455,198.624878 305.814941,202.710999 300.026245,207.191101 
	C297.952026,208.796402 297.068878,211.863449 295.380829,214.062759 
	C292.751190,217.488800 289.898468,220.743622 286.739624,224.554352 
	C282.521271,220.970078 278.041656,217.163818 273.281006,213.178772 
	C273.000000,213.000000 273.000000,213.000610 272.999939,212.626129 
	C272.999512,211.502731 272.999146,210.753815 272.999146,209.753174 
	C272.999725,209.333633 272.999878,209.165817 273.000000,208.998016 
z"/>
<path fill="#196391" opacity="1.000000" stroke="none" 
	d="
M246.070709,186.189026 
	C243.175858,179.024246 247.824188,175.227570 255.029968,176.109985 
	C259.588226,176.668182 264.170776,177.027878 269.826111,177.582962 
	C268.456421,180.674423 267.269379,183.353668 265.584106,186.436707 
	C259.716431,186.620941 254.346970,186.401382 248.869736,186.068237 
	C248.454559,185.808243 248.171524,185.858627 247.606293,186.133026 
	C246.890030,186.169846 246.480377,186.179443 246.070709,186.189026 
z"/>
<path fill="#2788BE" opacity="1.000000" stroke="none" 
	d="
M243.998779,191.001831 
	C241.219116,190.667267 238.440765,190.056274 235.659561,190.042938 
	C217.447968,189.955536 199.235153,190.065689 181.024673,189.898605 
	C179.053894,189.880524 177.095612,188.501358 175.064178,187.367065 
	C196.687210,186.969559 218.377609,186.958527 240.651321,187.051208 
	C241.234650,187.154953 241.640015,187.190659 241.640015,187.190659 
	C241.640015,187.190659 242.002701,186.987778 242.002701,186.987778 
	C242.444061,186.973038 242.885422,186.958282 243.660538,187.334625 
	C243.997971,188.478775 244.001663,189.231796 244.003479,190.239075 
	C244.000656,190.662842 243.999710,190.832336 243.998779,191.001831 
z"/>
<path fill="#428EB9" opacity="1.000000" stroke="none" 
	d="
M289.644043,187.832367 
	C290.493561,189.534485 290.967560,191.056931 291.718079,192.794785 
	C292.766724,194.281052 294.081573,195.512207 294.178162,196.832504 
	C294.308838,198.618362 293.504242,200.472656 293.100891,202.297607 
	C291.732208,201.731796 290.306458,201.271042 289.011871,200.568634 
	C287.872803,199.950592 286.986755,198.769104 285.806030,198.340836 
	C278.142395,195.561249 278.126007,195.606400 277.994873,187.421387 
	C281.751770,187.209732 285.510162,187.431229 289.644043,187.832367 
z"/>
<path fill="#3489BA" opacity="1.000000" stroke="none" 
	d="
M244.005356,189.984833 
	C244.001663,189.231796 243.997971,188.478775 243.991547,187.348618 
	C244.521408,186.803284 245.054031,186.635086 245.828674,186.327942 
	C246.480377,186.179443 246.890030,186.169846 247.872818,186.156433 
	C248.623123,186.162354 248.800308,186.172089 248.977493,186.181808 
	C254.346970,186.401382 259.716431,186.620941 265.552368,186.784042 
	C267.072876,186.808487 268.126923,186.889404 269.390076,187.200867 
	C269.066528,187.955078 268.533875,188.478760 267.607483,189.085464 
	C261.476196,189.448837 255.738602,189.729202 249.625870,190.007034 
	C248.500473,190.004227 247.750244,190.003952 246.625610,190.001160 
	C245.502594,189.994049 244.753967,189.989441 244.005356,189.984833 
z"/>
<path fill="#216A99" opacity="1.000000" stroke="none" 
	d="
M305.764038,184.047211 
	C302.737274,181.055954 299.977875,178.250046 297.218475,175.444122 
	C297.781952,174.877853 298.345398,174.311569 298.908875,173.745285 
	C301.997223,176.852921 305.085571,179.960571 308.173920,183.068207 
	C307.459747,183.456314 306.745575,183.844437 305.764038,184.047211 
z"/>
<path fill="#2788BE" opacity="1.000000" stroke="none" 
	d="
M268.001221,189.002441 
	C268.533875,188.478760 269.066528,187.955078 269.786072,187.223846 
	C271.049713,186.999802 272.126526,186.983322 273.606537,186.987823 
	C273.873199,188.953796 277.558350,191.155243 272.913910,192.919159 
	C269.361389,193.187302 267.816223,192.007126 268.001221,189.002441 
z"/>
<path fill="#2788BE" opacity="1.000000" stroke="none" 
	d="
M157.233795,189.219482 
	C157.253525,188.494934 157.506454,187.990479 157.883606,187.232101 
	C159.072952,186.966019 160.138062,186.953842 161.602631,186.957809 
	C161.745377,190.104156 160.627747,191.650848 157.233795,189.219482 
z"/>
<path fill="#2D6588" opacity="1.000000" stroke="none" 
	d="
M311.304260,169.548218 
	C310.734985,170.378281 310.032684,170.926361 309.330383,171.474442 
	C309.046021,170.805740 308.761658,170.137039 308.477295,169.468323 
	C309.375305,169.400940 310.273285,169.333588 311.304260,169.548218 
z"/>
<path fill="#2788BE" opacity="1.000000" stroke="none" 
	d="
M317.866425,187.575165 
	C315.955688,187.907822 313.699341,188.066360 311.112488,187.988693 
	C313.028259,187.635345 315.274536,187.518204 317.866425,187.575165 
z"/>
<path fill="#3489BA" opacity="1.000000" stroke="none" 
	d="
M241.753296,186.980530 
	C242.002701,186.987778 241.640015,187.190659 241.640015,187.190659 
	C241.640015,187.190659 241.234650,187.154953 241.119904,187.073151 
	C241.005173,186.991364 241.503876,186.973267 241.753296,186.980530 
z"/>
<path fill="#2788BE" opacity="1.000000" stroke="none" 
	d="
M309.810577,187.827301 
	C309.804169,187.914642 309.484436,187.983444 309.017700,187.950409 
	C309.079529,187.835297 309.288361,187.822021 309.810577,187.827301 
z"/>
<path fill="#2788BE" opacity="1.000000" stroke="none" 
	d="
M320.715332,187.160736 
	C320.682983,187.270294 320.413391,187.488251 319.900208,187.815460 
	C319.930420,187.706192 320.204224,187.487671 320.715332,187.160736 
z"/>
<path fill="#2688BF" opacity="1.000000" stroke="none" 
	d="
M244.003479,190.239075 
	C244.753967,189.989441 245.502594,189.994049 246.652832,190.364319 
	C248.369659,192.486633 249.684830,194.243317 251.217499,196.182312 
	C251.956451,196.576599 252.477921,196.788605 253.146362,197.324341 
	C254.999252,198.417099 256.791382,199.042572 258.384338,199.999557 
	C259.711121,200.796585 260.804138,201.982758 261.592041,202.993073 
	C259.467712,202.498260 257.759338,201.979507 256.034882,201.521194 
	C252.193222,200.500198 248.772125,200.621841 246.707611,205.125473 
	C246.611557,206.501663 246.806091,207.750214 247.432892,208.999191 
	C250.438675,209.415649 253.047623,209.682800 255.576736,210.285187 
	C258.777161,211.047501 261.865112,212.360809 265.091187,212.911697 
	C267.657684,213.349930 270.358704,213.000412 273.000000,213.000610 
	C273.000000,213.000610 273.000000,213.000000 273.000000,212.999695 
	C273.118439,216.053879 273.559906,219.149017 273.183502,222.141251 
	C273.048248,223.216110 270.942810,224.043121 269.430756,224.658264 
	C269.369293,219.426651 266.368042,216.895126 259.142029,215.784225 
	C257.675812,218.775513 256.052948,221.641266 254.871597,224.678726 
	C254.253738,226.267365 253.705353,229.284576 254.356506,229.692703 
	C256.057495,230.758865 258.453522,231.124008 260.539673,231.031387 
	C262.053101,230.964172 263.514282,229.719589 264.998779,229.000000 
	C264.032043,230.387817 263.173523,231.869125 262.073700,233.141983 
	C260.338501,235.150146 258.567932,237.165710 256.563080,238.888031 
	C255.438019,239.854553 253.717575,240.884644 252.438934,240.697876 
	C251.218613,240.519623 249.655991,238.976440 249.264069,237.716034 
	C248.695312,235.886826 248.936905,233.767929 249.023224,231.780838 
	C249.185303,228.049744 249.175888,224.819794 243.936981,224.593262 
	C242.894455,224.548203 241.224747,221.496185 241.138260,219.766068 
	C240.666687,210.331573 240.633240,200.880219 243.916901,191.388962 
	C243.999710,190.832336 244.000656,190.662842 244.003479,190.239075 
z"/>
<path fill="#2788BE" opacity="1.000000" stroke="none" 
	d="
M265.259583,228.820435 
	C263.514282,229.719589 262.053101,230.964172 260.539673,231.031387 
	C258.453522,231.124008 256.057495,230.758865 254.356506,229.692703 
	C253.705353,229.284576 254.253738,226.267365 254.871597,224.678726 
	C256.052948,221.641266 257.675812,218.775513 259.142029,215.784225 
	C266.368042,216.895126 269.369293,219.426651 269.062500,224.666656 
	C267.840118,226.213638 266.680237,227.427261 265.259583,228.820435 
z"/>
<path fill="#F4972C" opacity="1.000000" stroke="none" 
	d="
M464.171692,273.043152 
	C464.171692,273.043152 464.581665,273.035126 465.118500,272.933655 
	C467.146576,271.116882 468.913239,269.569427 470.079651,267.656067 
	C474.288239,260.752594 478.297852,253.727737 482.376678,246.745239 
	C487.585693,237.827988 492.788940,228.907379 497.994690,219.988190 
	C503.491089,211.722549 513.656799,206.419357 512.874390,194.170074 
	C513.424683,194.276001 513.974915,194.381927 514.525146,194.487854 
	C517.095093,198.955444 519.567749,203.482483 522.256042,207.877655 
	C527.173279,215.917145 532.342896,223.804245 537.168152,231.897491 
	C540.720581,237.855896 543.884583,244.045532 547.236328,250.124069 
	C549.470642,254.176056 551.275330,258.575287 554.113464,262.151489 
	C556.706421,265.418732 557.646912,268.330963 554.987671,272.927307 
	C557.108398,272.011688 558.157593,271.558655 559.584595,270.942566 
	C566.615234,283.421509 573.646423,295.901489 580.427490,308.662689 
	C576.405212,308.711884 572.613892,308.645294 568.865234,308.210480 
	C562.668945,307.491821 561.076050,308.756653 561.004761,315.019043 
	C560.934875,321.159546 560.299988,326.799957 554.216064,330.580109 
	C551.375427,332.345093 549.463318,335.604645 547.130371,338.186829 
	C547.229980,338.630615 547.329651,339.074402 547.429321,339.518219 
	C553.045105,338.716888 558.660889,337.915588 564.421997,337.093536 
	C564.247131,338.249115 564.039673,339.620422 563.732361,341.651184 
	C570.170776,341.651184 576.223572,341.726440 582.270691,341.576111 
	C583.261963,341.551422 585.120117,340.437866 585.071899,339.989899 
	C584.414856,333.893280 589.388550,332.994446 593.123230,330.944916 
	C596.093994,335.377869 599.064819,339.810822 602.546936,345.006775 
	C544.411560,345.006775 487.673370,345.006775 430.382477,344.662292 
	C428.157806,341.698273 428.248444,339.354309 430.031891,336.604858 
	C431.484955,334.364624 432.006775,331.520294 432.941559,328.943848 
	C432.941559,328.943848 432.994781,328.993225 433.273743,328.838318 
	C438.084534,326.081055 439.748627,321.916290 439.951813,316.970917 
	C439.959198,316.990265 439.930511,316.947754 440.276733,316.878540 
	C441.611542,315.992493 442.908600,315.363220 443.538086,314.328003 
	C447.296631,308.146820 451.045715,301.949738 454.469727,295.581512 
	C455.502655,293.660370 455.489777,291.176910 455.968567,288.979736 
	C455.981171,289.008453 455.935760,288.964111 456.261536,288.863403 
	C458.711060,284.828491 460.834808,280.894287 462.953369,276.979919 
	C462.948181,276.999695 462.933746,276.958679 463.183807,276.896851 
	C463.584167,276.175507 463.734497,275.516022 463.924408,274.553101 
	C464.033234,273.847504 464.102478,273.445343 464.171692,273.043152 
M532.429138,233.652847 
	C532.855774,233.448044 533.282349,233.243256 533.708984,233.038437 
	C533.440369,232.702179 533.171753,232.365906 532.903137,232.029648 
	C532.693237,232.423721 532.483337,232.817795 532.429138,233.652847 
M543.241760,339.258179 
	C542.843506,339.582642 542.445312,339.907135 542.047058,340.231628 
	C542.448669,340.397675 542.850281,340.563751 543.251892,340.729828 
	C543.397400,340.292450 543.542908,339.855042 543.241760,339.258179 
z"/>
<path fill="#F69420" opacity="1.000000" stroke="none" 
	d="
M592.926392,330.660217 
	C589.388550,332.994446 584.414856,333.893280 585.071899,339.989899 
	C585.120117,340.437866 583.261963,341.551422 582.270691,341.576111 
	C576.223572,341.726440 570.170776,341.651184 563.732361,341.651184 
	C564.039673,339.620422 564.247131,338.249115 564.421997,337.093536 
	C558.660889,337.915588 553.045105,338.716888 547.429321,339.518219 
	C547.329651,339.074402 547.229980,338.630615 547.130371,338.186829 
	C549.463318,335.604645 551.375427,332.345093 554.216064,330.580109 
	C560.299988,326.799957 560.934875,321.159546 561.004761,315.019043 
	C561.076050,308.756653 562.668945,307.491821 568.865234,308.210480 
	C572.613892,308.645294 576.405212,308.711884 580.566223,308.981995 
	C584.879944,316.138580 588.804749,323.257050 592.926392,330.660217 
z"/>
<path fill="#F78F37" opacity="1.000000" stroke="none" 
	d="
M497.722198,219.920425 
	C492.788940,228.907379 487.585693,237.827988 482.376678,246.745239 
	C478.297852,253.727737 474.288239,260.752594 470.079651,267.656067 
	C468.913239,269.569427 467.146576,271.116882 465.322998,272.919067 
	C470.236084,263.543152 475.481476,254.080322 481.068756,244.060287 
	C481.707275,242.706680 482.003876,241.910309 482.300476,241.113922 
	C482.546082,240.669495 482.791687,240.225067 483.374512,239.353256 
	C485.823883,235.301956 487.936096,231.678040 490.048279,228.054123 
	C490.048279,228.054123 490.039673,228.036636 490.251007,227.780365 
	C490.656921,226.699524 490.851532,225.874954 491.046082,225.050385 
	C491.046082,225.050385 491.066010,225.041321 491.383575,224.928940 
	C493.140564,222.876266 494.580017,220.935974 496.019470,218.995667 
	C496.496216,219.281326 496.972961,219.566986 497.722198,219.920425 
z"/>
<path fill="#D36128" opacity="1.000000" stroke="none" 
	d="
M496.176086,218.691101 
	C494.580017,220.935974 493.140564,222.876266 491.394257,224.926422 
	C491.674133,222.925049 492.260895,220.813812 492.925110,218.344360 
	C497.281128,211.160172 501.501007,204.296295 505.868134,197.527466 
	C507.540039,194.936020 509.548584,192.561752 511.788147,190.079987 
	C506.892609,199.509811 501.612640,208.948166 496.176086,218.691101 
z"/>
<path fill="#F78F37" opacity="1.000000" stroke="none" 
	d="
M432.710571,329.063965 
	C432.006775,331.520294 431.484955,334.364624 430.031891,336.604858 
	C428.248444,339.354309 428.157806,341.698273 429.913696,344.656921 
	C428.243927,344.700531 426.490295,344.405060 424.428101,343.735779 
	C426.473083,338.925415 428.826630,334.488800 431.180176,330.052124 
	C431.613312,329.762787 432.046448,329.473450 432.710571,329.063965 
z"/>
<path fill="#DC641B" opacity="1.000000" stroke="none" 
	d="
M430.841187,330.141663 
	C428.826630,334.488800 426.473083,338.925415 424.046692,343.714111 
	C423.520508,344.387177 423.067108,344.708130 422.358093,345.144531 
	C422.060638,344.449768 422.018799,343.639618 421.965332,342.427551 
	C424.803223,338.094177 427.652710,334.162689 430.841187,330.141663 
z"/>
<path fill="#D85D34" opacity="1.000000" stroke="none" 
	d="
M480.945953,218.880066 
	C480.615936,220.195816 480.562500,221.410049 479.928375,221.997238 
	C476.448120,225.219986 472.934570,228.430984 469.178345,231.315048 
	C468.195221,232.069931 465.145386,232.073135 465.007568,231.698776 
	C462.847778,225.833618 456.871124,221.086746 459.171692,213.945343 
	C459.715240,212.258041 462.108948,209.605286 462.995819,209.843002 
	C468.825836,211.405762 474.499725,213.577560 480.147278,215.751404 
	C480.687531,215.959351 480.698029,217.543686 480.945953,218.880066 
z"/>
<path fill="#DC641B" opacity="1.000000" stroke="none" 
	d="
M442.975952,308.979736 
	C444.234802,305.875061 445.151733,302.570496 446.825073,299.708130 
	C450.112488,294.084808 453.820557,288.707428 457.703522,283.132935 
	C458.052429,283.037537 458.119019,283.088959 458.034363,283.425842 
	C457.278381,285.496552 456.607086,287.230347 455.935791,288.964111 
	C455.935760,288.964111 455.981171,289.008453 455.693604,289.178833 
	C451.324615,295.940369 447.243195,302.531525 443.115265,309.086975 
	C443.068787,309.051270 442.975952,308.979736 442.975952,308.979736 
z"/>
<path fill="#DC641B" opacity="1.000000" stroke="none" 
	d="
M433.015991,327.035309 
	C432.859192,326.419586 432.367065,325.605621 432.596161,325.217987 
	C435.778076,319.833893 439.058899,314.508209 442.645752,309.074005 
	C442.975952,308.979736 443.068787,309.051270 443.015167,309.422607 
	C441.951172,312.178528 440.940826,314.563141 439.930481,316.947754 
	C439.930511,316.947754 439.959198,316.990265 439.677063,317.165253 
	C437.268646,320.571930 435.142303,323.803619 433.015991,327.035309 
z"/>
<path fill="#F78F37" opacity="1.000000" stroke="none" 
	d="
M432.996826,327.357056 
	C435.142303,323.803619 437.268646,320.571930 439.669678,317.145905 
	C439.748627,321.916290 438.084534,326.081055 433.239807,328.825562 
	C432.943787,328.538116 432.960724,328.108459 432.996826,327.357056 
z"/>
<path fill="#D36128" opacity="1.000000" stroke="none" 
	d="
M489.703430,228.125916 
	C487.936096,231.678040 485.823883,235.301956 483.412415,239.098770 
	C485.194916,235.580338 487.276764,231.889023 489.703430,228.125916 
z"/>
<path fill="#D85D34" opacity="1.000000" stroke="none" 
	d="
M409.443481,286.913513 
	C408.721680,287.287109 408.020111,287.381348 407.318573,287.475586 
	C407.409973,286.712128 407.501343,285.948700 407.592712,285.185242 
	C408.216400,285.668213 408.840057,286.151215 409.443481,286.913513 
z"/>
<path fill="#DC641B" opacity="1.000000" stroke="none" 
	d="
M459.973206,279.976898 
	C460.759521,278.389618 461.545837,276.802368 462.663574,275.104370 
	C462.994995,274.993652 463.025024,275.023621 463.009460,275.346069 
	C462.973816,276.098572 462.953796,276.528625 462.933746,276.958679 
	C462.933746,276.958679 462.948181,276.999695 462.723877,277.180847 
	C461.678375,278.250153 460.857147,279.138275 460.020294,280.014160 
	C460.004639,280.001862 459.973206,279.976898 459.973206,279.976898 
z"/>
<path fill="#DC641B" opacity="1.000000" stroke="none" 
	d="
M458.019318,283.011597 
	C458.451691,282.069489 458.917145,281.153351 459.677917,280.107056 
	C459.973206,279.976898 460.004639,280.001862 459.952026,280.316864 
	C459.305969,281.450897 458.712494,282.269928 458.119019,283.088959 
	C458.119019,283.088959 458.052429,283.037537 458.019318,283.011597 
z"/>
<path fill="#D36128" opacity="1.000000" stroke="none" 
	d="
M482.027374,241.219971 
	C482.003876,241.910309 481.707275,242.706680 481.209625,243.750793 
	C481.257141,243.107681 481.505707,242.216827 482.027374,241.219971 
z"/>
<path fill="#D36128" opacity="1.000000" stroke="none" 
	d="
M490.846283,225.302094 
	C490.851532,225.874954 490.656921,226.699524 490.254486,227.771439 
	C490.246582,227.197128 490.446503,226.375473 490.846283,225.302094 
z"/>
<path fill="#DC641B" opacity="1.000000" stroke="none" 
	d="
M463.951660,273.233704 
	C464.102478,273.445343 464.033234,273.847504 463.709656,274.595276 
	C463.455353,274.940826 463.025024,275.023621 463.025024,275.023621 
	C463.025024,275.023621 462.994995,274.993652 462.979980,274.977783 
	C463.220520,274.449310 463.476074,273.936768 463.951660,273.233704 
z"/>
<path fill="#1F89C0" opacity="1.000000" stroke="none" 
	d="
M272.999939,212.626129 
	C270.358704,213.000412 267.657684,213.349930 265.091187,212.911697 
	C261.865112,212.360809 258.777161,211.047501 255.576736,210.285187 
	C253.047623,209.682800 250.438675,209.415649 247.432709,208.599167 
	C246.999557,207.131775 246.998856,206.064804 246.998169,204.997849 
	C248.772125,200.621841 252.193222,200.500198 256.034882,201.521194 
	C257.759338,201.979507 259.467712,202.498260 261.820435,203.197388 
	C263.304962,203.936996 264.152496,204.468811 265.000000,205.000305 
	C265.000000,205.000000 264.998779,205.000458 265.011841,205.368530 
	C266.016571,206.824600 267.008301,207.912613 268.263245,209.191315 
	C269.363098,209.576355 270.199707,209.770691 271.036346,209.965042 
	C271.036346,209.965042 271.508087,209.962784 271.998718,209.976654 
	C272.659180,209.995316 272.828979,210.000107 272.998779,210.004883 
	C272.999146,210.753815 272.999512,211.502731 272.999939,212.626129 
z"/>
<path fill="#2789BC" opacity="1.000000" stroke="none" 
	d="
M271.020538,209.586700 
	C270.199707,209.770691 269.363098,209.576355 268.193176,208.860840 
	C266.906189,207.226593 265.952484,206.113525 264.998779,205.000458 
	C264.998779,205.000458 265.000000,205.000000 264.997467,204.593063 
	C264.409210,197.269516 264.412903,197.331497 257.395233,197.748108 
	C255.949829,197.833893 254.465683,197.266785 252.999390,197.000610 
	C252.477921,196.788605 251.956451,196.576599 251.209457,195.798737 
	C250.656296,193.491760 250.328659,191.750656 250.001007,190.009552 
	C255.738602,189.729202 261.476196,189.448837 267.607483,189.085464 
	C267.816223,192.007126 269.361389,193.187302 272.606110,192.997696 
	C271.907013,193.977020 270.830475,194.974365 269.712372,195.922714 
	C266.687500,198.488251 266.190643,201.169281 268.837219,204.436554 
	C269.901428,205.750351 270.302063,207.601685 271.020538,209.586700 
z"/>
<path fill="#2789BC" opacity="1.000000" stroke="none" 
	d="
M272.999146,209.753174 
	C272.828979,210.000107 272.659180,209.995316 272.234558,209.980530 
	C272.173523,209.721786 272.389557,209.494171 272.813934,209.142853 
	C272.999878,209.165817 272.999725,209.333633 272.999146,209.753174 
z"/>
<path fill="#0E6393" opacity="1.000000" stroke="none" 
	d="
M248.869736,186.068237 
	C248.800308,186.172089 248.623123,186.162354 248.179413,186.129211 
	C248.171524,185.858627 248.454559,185.808243 248.869736,186.068237 
z"/>
<path fill="#2788BE" opacity="1.000000" stroke="none" 
	d="
M249.625854,190.007034 
	C250.328659,191.750656 250.656296,193.491760 250.991974,195.616425 
	C249.684830,194.243317 248.369659,192.486633 247.027237,190.366821 
	C247.750244,190.003952 248.500473,190.004227 249.625854,190.007034 
z"/>
<path fill="#2788BE" opacity="1.000000" stroke="none" 
	d="
M253.146362,197.324341 
	C254.465683,197.266785 255.949829,197.833893 257.395233,197.748108 
	C264.412903,197.331497 264.409210,197.269516 264.997467,204.593369 
	C264.152496,204.468811 263.304962,203.936996 262.229065,203.200867 
	C260.804138,201.982758 259.711121,200.796585 258.384338,199.999557 
	C256.791382,199.042572 254.999252,198.417099 253.146362,197.324341 
z"/>
<path fill="#2189C0" opacity="1.000000" stroke="none" 
	d="
M246.707611,205.125473 
	C246.998856,206.064804 246.999557,207.131775 247.000427,208.598755 
	C246.806091,207.750214 246.611557,206.501663 246.707611,205.125473 
z"/>
<path fill="#F78F37" opacity="1.000000" stroke="none" 
	d="
M440.276733,316.878540 
	C440.940826,314.563141 441.951172,312.178528 443.061646,309.458282 
	C447.243195,302.531525 451.324615,295.940369 455.681030,289.150146 
	C455.489777,291.176910 455.502655,293.660370 454.469727,295.581512 
	C451.045715,301.949738 447.296631,308.146820 443.538086,314.328003 
	C442.908600,315.363220 441.611542,315.992493 440.276733,316.878540 
z"/>
<path fill="#F78F37" opacity="1.000000" stroke="none" 
	d="
M458.034363,283.425842 
	C458.712494,282.269928 459.305969,281.450897 459.967712,280.329163 
	C460.857147,279.138275 461.678375,278.250153 462.729095,277.161072 
	C460.834808,280.894287 458.711060,284.828491 456.261536,288.863403 
	C456.607086,287.230347 457.278381,285.496552 458.034363,283.425842 
z"/>
<path fill="#E79845" opacity="1.000000" stroke="none" 
	d="
M532.351318,233.432358 
	C532.483337,232.817795 532.693237,232.423721 532.903137,232.029648 
	C533.171753,232.365906 533.440369,232.702179 533.708984,233.038452 
	C533.282349,233.243256 532.855774,233.448044 532.351318,233.432358 
z"/>
<path fill="#F69420" opacity="1.000000" stroke="none" 
	d="
M543.465088,339.337921 
	C543.542908,339.855042 543.397400,340.292450 543.251892,340.729828 
	C542.850281,340.563751 542.448669,340.397675 542.047058,340.231628 
	C542.445312,339.907135 542.843506,339.582642 543.465088,339.337921 
z"/>
<path fill="#F78F37" opacity="1.000000" stroke="none" 
	d="
M463.009460,275.346069 
	C463.025024,275.023621 463.455353,274.940826 463.670105,274.898682 
	C463.734497,275.516022 463.584167,276.175507 463.183807,276.896851 
	C462.953796,276.528625 462.973816,276.098572 463.009460,275.346069 
z"/>
<path fill="#2788BE" opacity="1.000000" stroke="none" 
	d="
M265.011841,205.368530 
	C265.952484,206.113525 266.906189,207.226593 267.929932,208.670135 
	C267.008301,207.912613 266.016571,206.824600 265.011841,205.368530 
z"/>
</svg>